<svg width="368" height="298" viewBox="0 0 368 298" fill="none" xmlns="http://www.w3.org/2000/svg">
<path d="M183.5 5.82296V15.0197C109.481 15.0197 49.5197 75.0211 49.5197 149H40.323C38.4593 149 36.9603 150.499 37.0008 152.363C38.7834 230.596 101.904 293.717 180.137 295.499C182.001 295.54 183.5 294.041 183.5 292.177V282.98C257.479 282.98 317.48 222.979 317.48 149H326.677C328.541 149 330.04 147.46 329.999 145.637C328.257 67.364 265.136 4.24291 186.863 2.5008C185.04 2.46029 183.5 3.95931 183.5 5.82296Z" fill="#B880FF" stroke="white" stroke-width="2" stroke-linecap="round" stroke-linejoin="round"/>
<path d="M156.801 109.661L179.165 96.8585L212.184 92.9286" fill="#B880FF"/>
<path d="M156.801 109.661L179.165 96.8585L212.184 92.9286" stroke="white" stroke-width="1.2" stroke-miterlimit="10" stroke-linecap="round" stroke-linejoin="round"/>
<path d="M234.75 73.8059L242.569 66.7159" stroke="white" stroke-width="1.2" stroke-miterlimit="10" stroke-linecap="round" stroke-linejoin="round"/>
<path d="M236.006 71.9424C236.735 71.4157 237.789 71.6182 238.275 72.388L260.072 115.374L297.993 136.117C298.722 136.643 298.844 137.697 298.276 138.386L266.594 170.432L256.182 214.876C255.899 215.727 254.967 216.173 254.116 215.849L213.885 193.89L168.388 199.4C167.497 199.4 166.767 198.63 166.808 197.739L173.331 151.877L155.91 111.079C155.626 110.228 156.153 109.296 157.004 109.053L199.908 103.827L236.006 71.9424L237.546 70.7269Z" fill="white"/>
<path d="M247.107 128.014C244.393 129.999 241.638 131.944 238.923 133.929C238.235 134.415 237.546 134.901 236.898 135.387C236.736 135.509 236.736 135.509 236.573 135.347C236.452 135.185 236.33 135.023 236.209 134.901C233.413 131.498 229.848 129.351 225.554 128.46C224.257 128.176 222.92 128.054 221.583 128.054C217.815 128.095 214.372 129.189 211.252 131.296C208.457 133.159 206.35 135.631 204.81 138.629L194.925 128.419C195.006 128.297 195.087 128.135 195.209 128.014C197.558 124.732 200.394 121.977 203.798 119.79C206.917 117.764 210.32 116.346 214.007 115.495C217.653 114.685 221.3 114.482 225.027 114.968C225.27 115.009 225.513 115.009 225.756 115.049L228.754 115.617C228.997 115.698 229.24 115.738 229.483 115.819C230.658 116.103 231.833 116.508 232.968 116.913C235.966 118.088 238.721 119.627 241.273 121.613C243.501 123.355 245.487 125.38 247.229 127.649C247.31 127.892 247.31 127.892 247.107 128.014Z" fill="#B880FF"/>
<path d="M202.785 146.934C202.744 148.311 202.866 149.689 203.109 151.026C199.138 153.133 194.358 155.685 191.076 157.468C190.995 157.184 190.873 156.9 190.792 156.617C189.212 151.553 188.848 146.407 189.739 141.221C189.982 139.844 190.266 138.507 190.671 137.17C191.643 134.05 193.021 131.133 194.844 128.46L204.81 138.669C204.77 138.71 204.77 138.75 204.729 138.791C203.514 141.343 202.866 144.057 202.785 146.934Z" fill="#B880FF"/>
<path d="M239.815 175.537C239.409 175.82 238.964 176.104 238.559 176.347C235.561 178.17 232.279 179.305 228.795 179.872C225.473 180.439 222.11 180.439 218.707 179.993C217.37 179.831 216.033 179.588 214.736 179.224C213.278 178.859 211.819 178.373 210.442 177.806C207.606 176.671 204.972 175.172 202.542 173.309C199.584 171.04 197.072 168.366 195.006 165.246C193.385 162.815 192.089 160.182 191.117 157.427C194.358 155.685 199.138 153.132 203.149 150.985C203.311 151.917 203.554 152.808 203.879 153.7C204.77 156.414 206.188 158.845 208.092 160.952C211.212 164.395 215.02 166.543 219.558 167.312C220.368 167.434 221.219 167.556 222.029 167.596C223.69 167.677 225.311 167.596 226.891 167.272C228.065 167.029 229.159 166.705 230.253 166.259L239.815 175.537Z" fill="#B880FF"/>
<path d="M252.252 155.969C251.969 157.306 251.645 158.602 251.199 159.899C250.105 163.261 248.525 166.381 246.418 169.217C244.555 171.729 242.326 173.836 239.774 175.578L230.172 166.381C231.55 165.814 232.846 165.044 234.021 164.031C235.966 162.37 237.384 160.344 238.275 157.913C238.396 157.63 238.396 157.63 238.072 157.589L221.462 154.753C221.137 154.713 221.137 154.713 221.178 154.389L222.92 142.599C222.961 142.234 222.961 142.234 223.325 142.316L252.779 147.542C253.022 147.582 253.022 147.582 253.022 147.825C253.022 149.405 252.941 150.986 252.738 152.566C252.698 153.659 252.495 154.834 252.252 155.969Z" fill="#B880FF"/>
<path d="M247.107 128.014C244.393 129.999 241.638 131.944 238.923 133.929C238.235 134.415 237.546 134.901 236.898 135.387C236.736 135.509 236.736 135.509 236.573 135.347C236.452 135.185 236.33 135.023 236.209 134.901C233.413 131.498 229.848 129.351 225.554 128.46C224.257 128.176 222.92 128.054 221.583 128.054C217.815 128.095 214.372 129.189 211.252 131.296C208.457 133.159 206.35 135.631 204.81 138.629L194.925 128.419C195.006 128.297 195.087 128.135 195.209 128.014C197.558 124.732 200.394 121.977 203.798 119.79C206.917 117.764 210.32 116.346 214.007 115.495C217.653 114.685 221.3 114.482 225.027 114.968C225.27 115.009 225.513 115.009 225.756 115.049L228.754 115.617C228.997 115.698 229.24 115.738 229.483 115.819C230.658 116.103 231.833 116.508 232.968 116.913C235.966 118.088 238.721 119.627 241.273 121.613C243.501 123.355 245.487 125.38 247.229 127.649C247.31 127.892 247.31 127.892 247.107 128.014Z" stroke="white" stroke-width="1.2" stroke-miterlimit="10" stroke-linecap="round" stroke-linejoin="round"/>
<path d="M202.785 146.934C202.744 148.311 202.866 149.689 203.109 151.026C199.138 153.133 194.358 155.685 191.076 157.468C190.995 157.184 190.873 156.9 190.792 156.617C189.212 151.553 188.848 146.407 189.739 141.221C189.982 139.844 190.266 138.507 190.671 137.17C191.643 134.05 193.021 131.133 194.844 128.46L204.81 138.669C204.77 138.71 204.77 138.75 204.729 138.791C203.514 141.343 202.866 144.057 202.785 146.934Z" stroke="white" stroke-width="1.2" stroke-miterlimit="10" stroke-linecap="round" stroke-linejoin="round"/>
<path d="M239.815 175.537C239.409 175.82 238.964 176.104 238.559 176.347C235.561 178.17 232.279 179.305 228.795 179.872C225.473 180.439 222.11 180.439 218.707 179.993C217.37 179.831 216.033 179.588 214.736 179.224C213.278 178.859 211.819 178.373 210.442 177.806C207.606 176.671 204.972 175.172 202.542 173.309C199.584 171.04 197.072 168.366 195.006 165.246C193.385 162.815 192.089 160.182 191.117 157.427C194.358 155.685 199.138 153.132 203.149 150.985C203.311 151.917 203.554 152.808 203.879 153.7C204.77 156.414 206.188 158.845 208.092 160.952C211.212 164.395 215.02 166.543 219.558 167.312C220.368 167.434 221.219 167.556 222.029 167.596C223.69 167.677 225.311 167.596 226.891 167.272C228.065 167.029 229.159 166.705 230.253 166.259L239.815 175.537Z" stroke="white" stroke-width="1.2" stroke-miterlimit="10" stroke-linecap="round" stroke-linejoin="round"/>
<path d="M252.252 155.969C251.969 157.306 251.645 158.602 251.199 159.899C250.105 163.261 248.525 166.381 246.418 169.217C244.555 171.729 242.326 173.836 239.774 175.578L230.172 166.381C231.55 165.814 232.846 165.044 234.021 164.031C235.966 162.37 237.384 160.344 238.275 157.913C238.396 157.63 238.396 157.63 238.072 157.589L221.462 154.753C221.137 154.713 221.137 154.713 221.178 154.389L222.92 142.599C222.961 142.234 222.961 142.234 223.325 142.316L252.779 147.542C253.022 147.582 253.022 147.582 253.022 147.825C253.022 149.405 252.941 150.986 252.738 152.566C252.698 153.659 252.495 154.834 252.252 155.969Z" stroke="white" stroke-width="1.2" stroke-miterlimit="10" stroke-linecap="round" stroke-linejoin="round"/>
<path d="M260.072 115.333C261.692 113.469 273.077 102.085 273.077 102.085Z" fill="#B880FF"/>
<path d="M260.072 115.333C261.692 113.469 273.077 102.085 273.077 102.085" stroke="white" stroke-width="1.2" stroke-miterlimit="10" stroke-linecap="round" stroke-linejoin="round"/>
<path d="M190.793 62.6646C190.914 62.5835 191.076 62.6646 191.117 62.7861L193.466 69.8761L198.774 73.9275C198.855 74.0085 198.855 74.1706 198.774 74.2921L193.507 78.5866L190.59 84.9879C190.509 85.1094 190.387 85.1499 190.266 85.0689L184.634 80.7744L177.544 80.5718C177.423 80.5313 177.301 80.4098 177.342 80.2882L179.084 73.4413L177.666 66.7565C177.625 66.635 177.747 66.4729 177.868 66.4729L184.553 66.6755L190.793 62.6646Z" fill="white" stroke="white" stroke-width="1.2" stroke-miterlimit="10" stroke-linecap="round" stroke-linejoin="round"/>
<path d="M177.828 66.4729C177.828 66.4729 159.921 71.8208 142.581 67.6883" stroke="white" stroke-width="1.2" stroke-miterlimit="10" stroke-linecap="round" stroke-linejoin="round"/>
<path d="M138.165 71.7801C138.165 71.7801 153.236 84.1774 177.464 80.5717" stroke="white" stroke-width="1.2" stroke-miterlimit="10" stroke-linecap="round" stroke-linejoin="round"/>
<path d="M190.55 84.9473C161.704 94.4276 130.386 69.4304 130.386 69.4304" stroke="white" stroke-width="1.2" stroke-miterlimit="10" stroke-linecap="round" stroke-linejoin="round"/>
<path d="M179.003 73.4415C179.003 73.4415 158.584 78.4652 142.419 70.6865" stroke="white" stroke-width="1.2" stroke-miterlimit="10" stroke-linecap="round" stroke-linejoin="round"/>
<path d="M204.365 29.7265C144.242 27.4172 91.6138 76.7229 86.8331 139.925C82.0524 203.087 126.861 256.201 186.984 258.51C247.107 260.819 299.735 211.513 304.516 148.311C309.337 85.1498 264.488 32.0358 204.365 29.7265ZM281.261 147.42C277.493 197.09 236.128 235.862 188.848 234.039C141.568 232.216 106.32 190.446 110.088 140.776C113.856 91.1054 155.221 52.3334 202.501 54.1565C249.781 56.0202 285.028 97.7497 281.261 147.42Z" fill="black" stroke="black" stroke-width="1.2" stroke-miterlimit="10" stroke-linecap="round" stroke-linejoin="round"/>
<path d="M197.437 26.607C138.124 24.2977 86.2255 73.6844 81.4448 136.846C76.6641 200.008 120.865 253.081 180.137 255.39C239.41 257.7 291.349 208.313 296.089 145.151C300.869 81.9898 256.709 28.9163 197.437 26.607ZM276.48 144.382C272.591 195.997 230.172 236.308 181.758 234.445C133.343 232.581 97.2453 189.231 101.135 137.616C105.024 86.0007 147.442 45.6891 195.857 47.5528C244.271 49.4164 280.369 92.7666 276.48 144.382Z" fill="#B880FF"/>
<path d="M289.808 96.656C274.737 59.302 240.624 32.8462 199.178 31.2256C139.906 28.9569 87.967 78.3031 83.2268 141.465C81.9304 158.643 84.2397 175.091 89.5065 189.96C83.0243 173.917 80.0262 155.847 81.4442 136.846C86.2249 73.6845 138.124 24.2977 197.436 26.607C240.584 28.2681 275.75 56.8711 289.808 96.656Z" fill="white"/>
<path d="M197.437 26.607C138.124 24.2977 86.2255 73.6844 81.4448 136.846C76.6641 200.008 120.865 253.081 180.137 255.39C239.41 257.7 291.349 208.313 296.089 145.151C300.869 81.9898 256.709 28.9163 197.437 26.607ZM276.48 144.382C272.591 195.997 230.172 236.308 181.758 234.445C133.343 232.581 97.2453 189.231 101.135 137.616C105.024 86.0007 147.442 45.6891 195.857 47.5528C244.271 49.4164 280.369 92.7666 276.48 144.382Z" stroke="black" stroke-width="1.2" stroke-miterlimit="10" stroke-linecap="round" stroke-linejoin="round"/>
<path d="M203.878 40.3411C205.445 40.3411 206.714 39.0533 206.714 37.4646C206.714 35.876 205.445 34.5881 203.878 34.5881C202.312 34.5881 201.042 35.876 201.042 37.4646C201.042 39.0533 202.312 40.3411 203.878 40.3411Z" fill="black" stroke="black" stroke-width="1.2" stroke-miterlimit="10" stroke-linecap="round" stroke-linejoin="round"/>
<path d="M107.657 207.827C109.224 207.827 110.493 206.539 110.493 204.95C110.493 203.362 109.224 202.074 107.657 202.074C106.091 202.074 104.821 203.362 104.821 204.95C104.821 206.539 106.091 207.827 107.657 207.827Z" fill="black" stroke="black" stroke-width="1.2" stroke-miterlimit="10" stroke-linecap="round" stroke-linejoin="round"/>
<path d="M131.196 61.8137C132.763 61.8137 134.032 60.5258 134.032 58.9372C134.032 57.3485 132.763 56.0607 131.196 56.0607C129.63 56.0607 128.36 57.3485 128.36 58.9372C128.36 60.5258 129.63 61.8137 131.196 61.8137Z" fill="black" stroke="black" stroke-width="1.2" stroke-miterlimit="10" stroke-linecap="round" stroke-linejoin="round"/>
<path d="M270.889 83.8939C272.455 83.8939 273.725 82.606 273.725 81.0174C273.725 79.4287 272.455 78.1409 270.889 78.1409C269.323 78.1409 268.053 79.4287 268.053 81.0174C268.053 82.606 269.323 83.8939 270.889 83.8939Z" fill="black" stroke="black" stroke-width="1.2" stroke-miterlimit="10" stroke-linecap="round" stroke-linejoin="round"/>
<path d="M247.35 223.911C248.917 223.911 250.186 222.623 250.186 221.035C250.186 219.446 248.917 218.158 247.35 218.158C245.784 218.158 244.514 219.446 244.514 221.035C244.514 222.623 245.784 223.911 247.35 223.911Z" fill="black" stroke="black" stroke-width="1.2" stroke-miterlimit="10" stroke-linecap="round" stroke-linejoin="round"/>
<path d="M284.866 157.873C286.433 157.873 287.702 156.585 287.702 154.997C287.702 153.408 286.433 152.12 284.866 152.12C283.3 152.12 282.03 153.408 282.03 154.997C282.03 156.585 283.3 157.873 284.866 157.873Z" fill="black" stroke="black" stroke-width="1.2" stroke-miterlimit="10" stroke-linecap="round" stroke-linejoin="round"/>
<path d="M91.5732 130.526C93.1394 130.526 94.4092 129.238 94.4092 127.649C94.4092 126.061 93.1394 124.773 91.5732 124.773C90.0069 124.773 88.7372 126.061 88.7372 127.649C88.7372 129.238 90.0069 130.526 91.5732 130.526Z" fill="black" stroke="black" stroke-width="1.2" stroke-miterlimit="10" stroke-linecap="round" stroke-linejoin="round"/>
<path d="M177.585 248.827C179.151 248.827 180.421 247.539 180.421 245.951C180.421 244.362 179.151 243.074 177.585 243.074C176.019 243.074 174.749 244.362 174.749 245.951C174.749 247.539 176.019 248.827 177.585 248.827Z" fill="black" stroke="black" stroke-width="1.2" stroke-miterlimit="10" stroke-linecap="round" stroke-linejoin="round"/>
<path d="M100.527 175.375C123.126 175.375 141.446 157.055 141.446 134.456C141.446 111.857 123.126 93.5363 100.527 93.5363C77.9279 93.5363 59.6077 111.857 59.6077 134.456C59.6077 157.055 77.9279 175.375 100.527 175.375Z" fill="black"/>
<path d="M141.406 136.481C140.677 159.453 121.757 177.522 99.1903 176.793C89.872 176.509 81.364 173.066 74.6792 167.515C79.9866 170.351 86.0232 172.053 92.4244 172.255C114.991 172.985 133.911 154.915 134.64 131.944C135.086 118.453 129.13 106.217 119.569 98.317C132.979 105.488 141.933 120.033 141.406 136.481Z" fill="#B880FF"/>
<path d="M141.446 135.752C140.717 158.359 121.838 176.064 99.2712 175.375C76.6643 174.646 57.7442 156.009 58.4734 133.443C59.2027 110.836 79.2572 92.8882 101.864 93.5769C124.471 94.2657 142.135 113.145 141.446 135.752Z" stroke="white" stroke-width="1.2" stroke-miterlimit="10" stroke-linecap="round" stroke-linejoin="round"/>
<path d="M124.43 170.473C117.219 175.253 108.468 177.968 99.1495 177.644C75.0841 176.874 56.245 156.576 57.3389 132.43C58.3923 109.377 77.6365 91.0649 100.689 91.1865C112.843 91.227 123.742 96.2912 131.561 104.313C131.561 104.313 131.034 121.491 119.933 125.988C118.556 126.555 117.583 127.771 117.381 129.229C116.53 135.468 115.841 141.586 114.342 154.875C112.6 170.068 124.43 170.473 124.43 170.473Z" fill="white"/>
<path d="M112.357 92.8475C90.1556 91.5106 69.4933 106.379 64.1455 128.5C60.8638 142.113 63.9024 155.726 71.3165 166.3C62.2008 157.954 56.7314 145.8 57.3391 132.43C58.3925 109.377 77.6367 91.0649 100.689 91.1865C104.741 91.227 108.671 91.7942 112.357 92.8475Z" fill="#B880FF"/>
<path d="M115.801 92.8474C93.5993 91.5104 72.937 106.379 67.5892 128.5C64.3075 142.113 67.3461 155.725 74.7602 166.3C65.6445 157.954 59.0002 146.893 59.6079 133.564C60.6613 110.552 81.0399 91.1053 104.092 91.2268C108.184 91.2268 112.074 91.794 115.801 92.8474Z" fill="#B880FF"/>
<path d="M124.43 170.473C117.219 175.253 108.468 177.968 99.1495 177.644C75.0841 176.874 56.245 156.576 57.3389 132.43C58.3923 109.377 77.6365 91.0649 100.689 91.1865C112.843 91.227 123.742 96.2912 131.561 104.313C131.561 104.313 131.034 121.491 119.933 125.988C118.556 126.555 117.583 127.771 117.381 129.229C116.53 135.468 115.841 141.586 114.342 154.875C112.6 170.068 124.43 170.473 124.43 170.473Z" stroke="black" stroke-width="1.2" stroke-miterlimit="10" stroke-linecap="round" stroke-linejoin="round"/>
<path d="M120.258 163.991C122.85 166.3 128.401 166.746 128.401 166.746L124.471 170.473C124.471 170.473 112.641 170.068 114.383 154.915C115.923 141.627 116.571 135.509 117.422 129.27C117.624 127.812 118.596 126.556 119.974 126.029C131.034 121.491 131.602 104.354 131.602 104.354C131.602 104.354 135.612 107.392 135.491 108.405C134.559 114.482 131.561 125.907 121.676 129.959C120.987 135.104 120.379 140.249 119.326 149.568L118.637 155.402C118.151 159.291 118.475 162.411 120.258 163.991Z" fill="#B880FF" stroke="black" stroke-width="1.2" stroke-miterlimit="10" stroke-linecap="round" stroke-linejoin="round"/>
<path d="M50.5732 166.218C50.5732 166.218 59.1622 156.374 64.4291 155.482C69.6959 154.591 116.854 155.887 130.386 188.744" fill="white"/>
<path d="M101.337 161.965C91.6141 160.101 76.9074 159.939 63.8214 169.987L50.5732 166.259C50.5732 166.259 59.1622 156.414 64.4291 155.523C67.4676 154.956 84.7672 155.199 101.337 161.965Z" fill="#B880FF"/>
<path d="M50.5732 166.218C50.5732 166.218 59.1622 156.374 64.4291 155.482C69.6959 154.591 116.854 155.887 130.386 188.744" stroke="black" stroke-width="1.2" stroke-miterlimit="10" stroke-linecap="round" stroke-linejoin="round"/>
<path d="M101.54 151.877C107.179 151.877 111.75 147.306 111.75 141.667C111.75 136.028 107.179 131.458 101.54 131.458C95.9014 131.458 91.3304 136.028 91.3304 141.667C91.3304 147.306 95.9014 151.877 101.54 151.877Z" fill="#B880FF" stroke="black" stroke-width="1.2" stroke-miterlimit="10" stroke-linecap="round" stroke-linejoin="round"/>
<path d="M101.54 146.772C104.359 146.772 106.645 144.487 106.645 141.667C106.645 138.848 104.359 136.562 101.54 136.562C98.7208 136.562 96.4353 138.848 96.4353 141.667C96.4353 144.487 98.7208 146.772 101.54 146.772Z" fill="black" stroke="black" stroke-width="1.2" stroke-miterlimit="10" stroke-linecap="round" stroke-linejoin="round"/>
<path d="M101.54 141.667L124.431 144.179" stroke="black" stroke-width="1.2" stroke-miterlimit="10" stroke-linecap="round" stroke-linejoin="round"/>
<path d="M158.057 198.225C161.946 184.815 158.827 174.848 161.42 173.673C163.324 172.782 165.674 176.752 166.727 178.819C167.092 179.507 172.48 155.077 176.977 155.928C180.745 156.657 177.423 169.379 177.342 174.605C177.342 174.605 181.191 152.241 185.769 152.93C190.631 153.659 185.85 176.145 185.85 176.145L186.336 173.552C186.336 173.552 190.306 157.022 192.98 157.022C195.938 157.022 195.209 166.988 192.859 179.102L192.98 178.373C192.98 178.373 194.601 168.204 197.072 168.649C200.475 169.986 194.641 204.221 193.993 207.016L158.057 198.225Z" fill="#B880FF"/>
<mask id="mask0" mask-type="alpha" maskUnits="userSpaceOnUse" x="37" y="2" width="294" height="294">
<path d="M183.501 5.82296V15.0197C109.482 15.0197 49.5207 75.0211 49.5207 149H40.3239C38.4603 149 36.9613 150.499 37.0018 152.363C38.7844 230.596 101.905 293.717 180.138 295.499C182.002 295.54 183.501 294.041 183.501 292.177V282.98C257.48 282.98 317.481 222.979 317.481 149H326.678C328.542 149 330.041 147.46 330 145.637C328.258 67.364 265.137 4.24291 186.864 2.5008C185.041 2.46029 183.501 3.95931 183.501 5.82296Z" fill="#B880FF"/>
</mask>
<g mask="url(#mask0)">
<path d="M177.383 192.229C163.324 189.15 158.057 198.225 158.057 198.225L152.102 216.983C151.859 216.416 151.616 215.808 151.372 215.281C143.513 197.658 129.576 183.518 112.155 175.172C73.1801 156.495 34.4486 164.031 34.4486 164.031C34.4486 164.031 26.7914 216.902 26.7914 219.292C26.7914 221.683 37.5276 275.729 40.1611 291.083C42.754 306.438 128.887 299.429 128.887 299.429L136.18 291.124L139.623 295.418C180.056 281.36 193.993 207.017 193.993 207.017C193.993 207.017 191.441 195.267 177.383 192.229Z" fill="white"/>
<path d="M98.7041 242.223C98.7041 242.223 107.455 270.097 128.887 288.045L121.23 290.637C99.7575 272.69 98.7041 242.223 98.7041 242.223Z" fill="black" stroke="black" stroke-width="1.2" stroke-miterlimit="10" stroke-linecap="round" stroke-linejoin="round"/>
<path d="M152.102 216.983L158.057 198.225C158.057 198.225 163.284 189.15 177.383 192.229C191.481 195.308 194.034 207.057 194.034 207.057C194.034 207.057 180.097 281.401 139.664 295.459" stroke="black" stroke-width="1.2" stroke-miterlimit="10" stroke-linecap="round" stroke-linejoin="round"/>
<path d="M34.4485 164.031C34.4485 164.031 73.18 156.495 112.114 175.172C129.535 183.518 143.472 197.617 151.332 215.281C156.234 226.301 160.65 241.048 162.919 260.698" stroke="black" stroke-width="1.2" stroke-miterlimit="10" stroke-linecap="round" stroke-linejoin="round"/>
<path d="M150.765 230.312C147.037 243.358 132.25 248.341 128.563 249.394C128.441 249.435 128.32 249.435 128.198 249.435C128.036 249.03 120.744 232.176 117.908 227.111C123.539 224.194 133.263 219.616 140.96 209.285C143.472 213.175 144.931 216.051 146.835 220.346C148.131 223.425 149.468 226.706 150.765 230.312Z" fill="#B880FF" stroke="#B880FF" stroke-width="1.2" stroke-miterlimit="10" stroke-linecap="round" stroke-linejoin="round"/>
<path d="M131.642 222.858C127.469 225.775 126.416 231.487 129.333 235.66C132.25 239.833 137.962 240.886 142.135 237.969C146.308 235.052 147.362 229.34 144.445 225.167C141.568 220.994 135.815 219.941 131.642 222.858ZM143.513 232.419C143.756 230.92 143.472 229.34 142.541 228.003C140.636 225.288 136.909 224.6 134.195 226.504C132.655 227.557 131.399 225.815 132.979 224.721C136.099 222.533 140.434 223.344 142.581 226.463C143.837 228.286 144.121 230.474 143.513 232.419Z" fill="white" stroke="#B880FF" stroke-width="1.2" stroke-miterlimit="10" stroke-linecap="round" stroke-linejoin="round"/>
</g>
<path d="M188.848 226.99C189.212 225.37 189.375 224.478 189.375 224.478C189.375 224.478 186.782 212.486 172.44 209.366C158.098 206.247 152.75 215.484 152.75 215.484C152.75 215.484 152.709 215.403 152.628 215.281L158.057 198.184C158.057 198.184 163.283 189.109 177.382 192.188C191.441 195.267 194.034 207.017 194.034 207.017C194.034 207.017 192.454 215.403 188.848 226.99Z" fill="#B880FF" stroke="black" stroke-width="1.2" stroke-miterlimit="10" stroke-linecap="round" stroke-linejoin="round"/>
<path d="M158.057 198.225C161.946 184.815 158.827 174.848 161.42 173.673C163.972 172.498 166.727 178.819 166.727 178.819" stroke="black" stroke-width="1.2" stroke-miterlimit="10" stroke-linecap="round" stroke-linejoin="round"/>
<path d="M165.998 182.1C165.998 182.1 172.48 155.077 176.977 155.928C180.745 156.657 177.423 169.379 177.342 174.605C177.342 174.605 181.191 152.241 185.769 152.93C190.63 153.659 185.85 176.145 185.85 176.145" stroke="black" stroke-width="1.2" stroke-miterlimit="10" stroke-linecap="round" stroke-linejoin="round"/>
<path d="M186.377 173.552C186.377 173.552 190.347 157.022 193.021 157.022C195.978 157.022 195.33 166.583 192.98 178.697" stroke="black" stroke-width="1.2" stroke-miterlimit="10" stroke-linecap="round" stroke-linejoin="round"/>
<path d="M193.993 207.057C194.641 204.261 200.962 169.986 197.558 168.649C195.087 168.163 193.142 177.724 193.142 177.724" stroke="black" stroke-width="1.2" stroke-miterlimit="10" stroke-linecap="round" stroke-linejoin="round"/>
<path d="M170.698 175.618C171.143 175.456 183.338 172.822 195.614 180.398" stroke="black" stroke-width="1.2" stroke-miterlimit="10" stroke-linecap="round" stroke-linejoin="round"/>
<path d="M183.5 5.82296V15.0197C109.481 15.0197 49.5197 75.0211 49.5197 149H40.323C38.4593 149 36.9603 150.499 37.0008 152.363C38.7834 230.596 101.904 293.717 180.137 295.499C182.001 295.54 183.5 294.041 183.5 292.177V282.98C257.479 282.98 317.48 222.979 317.48 149H326.677C328.541 149 330.04 147.46 329.999 145.637C328.257 67.364 265.136 4.24291 186.863 2.5008C185.04 2.46029 183.5 3.95931 183.5 5.82296Z" stroke="white" stroke-width="2" stroke-miterlimit="10" stroke-linecap="round" stroke-linejoin="round"/>
<path d="M217.046 213.175C218.59 213.175 219.841 211.923 219.841 210.379C219.841 208.835 218.59 207.584 217.046 207.584C215.502 207.584 214.25 208.835 214.25 210.379C214.25 211.923 215.502 213.175 217.046 213.175Z" fill="white" stroke="white" stroke-width="1.2" stroke-miterlimit="10" stroke-linecap="round" stroke-linejoin="round"/>
<path d="M209.145 217.145C210.175 217.145 211.009 216.311 211.009 215.281C211.009 214.252 210.175 213.418 209.145 213.418C208.116 213.418 207.282 214.252 207.282 215.281C207.282 216.311 208.116 217.145 209.145 217.145Z" fill="white" stroke="white" stroke-width="1.2" stroke-miterlimit="10" stroke-linecap="round" stroke-linejoin="round"/>
<path d="M135.774 126.312C135.734 125.948 135.693 125.543 135.896 125.218C136.18 124.773 136.868 124.732 137.354 124.975C137.841 125.218 138.124 125.745 138.327 126.231C139.826 129.27 140.069 132.876 139.056 136.076C138.894 136.522 138.691 137.049 138.246 137.251C136.18 138.183 136.706 134.537 136.706 133.645C136.625 131.215 136.058 128.703 135.774 126.312Z" fill="white"/>
<path d="M135.775 139.965C135.856 139.277 136.585 138.75 137.274 138.79C137.76 138.831 138.205 139.074 138.448 139.52C139.461 141.424 135.45 142.356 135.775 139.965Z" fill="white"/>
<path d="M160.204 161.519C160.92 161.519 161.501 160.939 161.501 160.223C161.501 159.507 160.92 158.926 160.204 158.926C159.488 158.926 158.908 159.507 158.908 160.223C158.908 160.939 159.488 161.519 160.204 161.519Z" fill="white" stroke="white" stroke-width="1.2" stroke-miterlimit="10" stroke-linecap="round" stroke-linejoin="round"/>
</svg>
